<svg class="signOutGraphic" xmlns="http://www.w3.org/2000/svg" xmlns:xlink="http://www.w3.org/1999/xlink" viewBox="0 0 533 238">
        <defs>
            <path id="a" d="M180.868 123.493c17.252-.344 31.124-13.54 31.124-29.768 0-14.68-11.351-26.879-26.288-29.328.004-.205.005-.41.005-.617 0-22.704-19.663-41.11-43.92-41.11-5.547 0-10.854.962-15.74 2.719C117.395 10.278 100.356 0 80.75 0 52.388 0 29.395 21.511 29.395 48.047c0 1.166.045 2.322.132 3.467C12.562 55.5 0 69.857 0 86.958 0 107.139 17.496 123.5 39.078 123.5h141.79v-.007z"></path>
            <mask id="b" width="211.992" height="123.5" x="0" y="0" fill="#fff">
                <use xlink:href="#a"></use>
            </mask>
        </defs>
        <g fill="none" fill-rule="evenodd">
            <g fill="#005CB9">
                <path d="M115.99 157.003c-8.17-14.954-24.28-25.128-42.818-25.128-3.81 0-7.516.43-11.072 1.242 19.021 3.97 34.506 17.108 41.24 34.383 2.657-4.917 7.182-8.717 12.65-10.497z"></path>
                <path d="M137.323 167.121c-2.668-7.038-9.575-12.066-17.656-12.066-1.778 0-3.497.248-5.13.703C107.252 140.552 91.508 130 73.3 130c-22.467 0-41.186 16.067-44.885 37.121H12.032V169h18.023c.087-.63.185-1.257.3-1.879C34.03 147.108 51.888 131.88 73.3 131.88c17.368 0 32.397 10.021 39.417 24.487a18.937 18.937 0 0 0-5.843 3.633l.743.595.755.604a17.027 17.027 0 0 1 6.952-3.707 17.165 17.165 0 0 1 4.343-.558c7.008 0 13.034 4.209 15.6 10.188.261.608.482 1.237.669 1.879h54.582v-1.879h-53.195z"></path>
            </g>
            <g fill="#005CB9">
                <path d="M516.324 181c-4.706-21.577-23.458-37.673-46.304-37.673-3.957 0-7.802.484-11.48 1.396 19.362 4.306 34.996 18.188 41.402 36.277h16.382z"></path>
                <path d="M408.39 179.121c2.636-7.038 9.46-12.066 17.446-12.066 1.757 0 3.456.248 5.068.703 7.2-15.206 22.757-25.758 40.747-25.758 22.2 0 40.697 16.067 44.352 37.121h16.188V181h-17.809a42.643 42.643 0 0 0-.296-1.879c-3.632-20.013-21.278-35.242-42.435-35.242-17.16 0-32.011 10.021-38.947 24.487a18.679 18.679 0 0 1 5.773 3.633l-.735.595-.745.604a16.789 16.789 0 0 0-6.87-3.707 16.771 16.771 0 0 0-4.291-.558c-6.925 0-12.88 4.209-15.415 10.188a16.365 16.365 0 0 0-.66 1.879H382.263v-1.879h26.127z"></path>
            </g>
            <g fill="#005CB9">
                <path d="M448.473 85.321c-1.32-12.592-12.172-22.414-25.364-22.414a25.9 25.9 0 0 0-8.806 1.531c11.062 2.187 19.738 10.9 21.737 21.901a22.781 22.781 0 0 1 8.014-1.444c1.512 0 2.99.146 4.419.426z"></path>
                <path d="M463.256 98.691c-2.404-7.52-8.914-13.193-16.88-14.355 3.879 3.848 6.607 8.811 7.64 14.355h9.24z"></path>
                <path d="M463.51 96.76c-1.976-6.855-7.749-12.108-14.88-13.316C446.055 71.212 435.201 62 422.238 62c-8.954 0-16.898 4.397-21.806 11.146-10.973 1.311-19.51 10.685-19.51 22.026 0 .535.026 1.063.063 1.589h-32.38v1.907H383.134c-.109-.627-.189-1.262-.239-1.907a20.317 20.317 0 0 1-.068-1.59c0-9.792 6.964-17.986 16.19-19.872a26.928 26.928 0 0 0-3.23 8.45h1.944a25.01 25.01 0 0 1 5.232-10.763c4.602-5.543 11.534-9.079 19.276-9.079 11.826 0 21.76 8.25 24.384 19.306a24.386 24.386 0 0 1 .386 1.942 16.503 16.503 0 0 1 1.958.29c5.923 1.248 10.709 5.624 12.553 11.316.202.62.37 1.257.498 1.907h26.088v-1.907H463.51z"></path>
            </g>
            <path fill="#004387" d="M228.255 59h86.693v158h-86.693z"></path>
            <g transform="translate(100 68)">
                <use fill="#FFF" stroke="#005CB9" stroke-dasharray="1" stroke-linecap="square" stroke-linejoin="round" stroke-width="6" mask="url(#b)" xlink:href="#a"></use>
                <path fill="#A6D2FF" d="M102.943 54.862c4.494-17.149 20.398-29.824 39.327-29.824 22.42 0 40.597 17.784 40.597 39.72 0 .599-.014 1.193-.04 1.785-5.61-17.918-22.65-30.947-42.8-30.947-15.431 0-29.038 7.64-37.084 19.266z"></path>
                <path fill="#A6D2FF" d="M44.235 18.29C53.522 8.692 66.665 2.706 81.24 2.706c21.108 0 39.218 12.558 46.95 30.455-12.773-12.44-32.124-20.371-53.785-20.371-10.808 0-21.041 1.974-30.169 5.498z"></path>
            </g>
            <g transform="translate(272.112 45)">
                <path fill="#A6D2FF" stroke="#005CB9" stroke-dasharray="1" stroke-linecap="square" stroke-width="2" d="M0 0l85.673 25.638v139.724L0 191z"></path>
                <ellipse cx="19.888" cy="93.5" fill="#005CB9" rx="6.629" ry="6.5"></ellipse>
                <ellipse cx="20.908" cy="93.5" fill="#409FFF" rx="4.59" ry="4.5"></ellipse>
                <path fill="#409FFF" d="M76.494 24l8.36 2.426v138.22l-8.242 2.336z"></path>
            </g>
            <g transform="translate(-.187)">
                <g fill="#FFDB63">
                    <path d="M373.5 51c.513 0 .744 1.653 1.87 2.778 1.124 1.125 2.63 1.21 2.63 1.722 0 .511-1.516.74-2.641 1.865S374.151 60 373.5 60c-.65 0-.768-1.586-1.893-2.71-1.125-1.126-2.607-1.23-2.607-1.79s1.357-.577 2.534-1.754C372.71 52.569 372.987 51 373.5 51zM284.538 0c.913 0 1.323 2.938 3.323 4.938 2 2 4.677 2.153 4.677 3.062 0 .909-2.695 1.316-4.695 3.316-2 2-2.148 4.684-3.305 4.684s-1.366-2.82-3.366-4.82c-2-2-4.634-2.184-4.634-3.18s2.412-1.027 4.504-3.118C283.134 2.79 283.625 0 284.538 0zM159.038 24c.627 0 .91 2.02 2.284 3.395 1.375 1.375 3.216 1.48 3.216 2.105s-1.853.905-3.228 2.28c-1.375 1.375-1.477 3.22-2.272 3.22-.795 0-.94-1.938-2.314-3.313-1.375-1.375-3.186-1.502-3.186-2.187 0-.685 1.658-.706 3.096-2.144 1.438-1.438 1.776-3.356 2.404-3.356zM106.038 74c.627 0 .91 2.02 2.284 3.395 1.375 1.375 3.216 1.48 3.216 2.105s-1.853.905-3.228 2.28c-1.375 1.375-1.477 3.22-2.272 3.22-.795 0-.94-1.938-2.314-3.313-1.375-1.375-3.186-1.502-3.186-2.187 0-.685 1.658-.706 3.096-2.144 1.438-1.438 1.776-3.356 2.404-3.356z"></path>
                </g>
                <path fill="#005CB9" d="M484.442 89h15.299v1h-15.299zM.442 162h15.299v1H.442zM496.681 97h19.378v1h-19.378z"></path>
                <ellipse cx="128.04" cy="38" fill="#409FFF" rx="2.04" ry="2"></ellipse>
                <ellipse cx="405.311" cy="33" fill="#409FFF" rx="2.04" ry="2"></ellipse>
                <ellipse cx="324.315" cy="35" fill="#409FFF" rx="2.04" ry="2"></ellipse>
                <ellipse cx="228.43" cy="24.5" fill="#409FFF" rx="3.57" ry="3.5"></ellipse>
                <ellipse cx="182.036" cy="42.5" fill="#409FFF" rx="2.55" ry="2.5"></ellipse>
                <ellipse cx="82.036" cy="108.5" fill="#409FFF" rx="2.55" ry="2.5"></ellipse>
                <ellipse cx="466.618" cy="72.5" fill="#409FFF" rx="2.55" ry="2.5"></ellipse>
                <path fill="#0B77E3" d="M1 174h19.378v1H1z"></path>
            </g>
        </g>
    </svg>